<?xml version="1.0" standalone="no"?>
<svg viewBox="0 0 200 200" xmlns="http://www.w3.org/2000/svg">
  <path fill="#135216" d="M43.7,-72.6C54.4,-69.6,59.1,-53.2,63.6,-38.9C68.1,-24.5,72.4,-12.3,69.8,-1.5C67.1,9.2,57.4,18.4,51.8,30.8C46.1,43.2,44.6,58.9,36.6,68.9C28.7,79,14.3,83.4,2.5,79.1C-9.3,74.7,-18.7,61.7,-30.3,53.7C-41.9,45.8,-55.8,43,-65.7,34.9C-75.5,26.8,-81.3,13.4,-77.5,2.2C-73.7,-9,-60.2,-18,-53.2,-31C-46.2,-44,-45.7,-61.1,-37.9,-65.7C-30.1,-70.3,-15,-62.5,0.8,-63.8C16.6,-65.1,33.1,-75.6,43.7,-72.6Z" transform="translate(100 100)" />
</svg>
